<svg xmlns="http://www.w3.org/2000/svg" viewBox="0 0 640 640"><rect x="180" y="180" width="280" height="280" rx="40"/><rect x="232" y="110" width="40" height="70" rx="10"/><rect x="300" y="110" width="40" height="70" rx="10"/><rect x="368" y="110" width="40" height="70" rx="10"/><rect x="232" y="460" width="40" height="70" rx="10"/><rect x="300" y="460" width="40" height="70" rx="10"/><rect x="368" y="460" width="40" height="70" rx="10"/><rect x="110" y="232" width="70" height="40" rx="10"/><rect x="110" y="300" width="70" height="40" rx="10"/><rect x="110" y="368" width="70" height="40" rx="10"/><rect x="460" y="232" width="70" height="40" rx="10"/><rect x="460" y="300" width="70" height="40" rx="10"/><rect x="460" y="368" width="70" height="40" rx="10"/></svg>
