<svg xmlns="http://www.w3.org/2000/svg" viewBox="0 0 640 640"><path fill-rule="evenodd" d="M140 320 A180 180 0 1 0 500 320 A180 180 0 1 0 140 320 Z M236 320 A84 84 0 1 0 404 320 A84 84 0 1 0 236 320 Z"/><rect x="292" y="92" width="56" height="84" rx="12"/><rect x="292" y="92" width="56" height="84" rx="12" transform="rotate(45 320 320)"/><rect x="292" y="92" width="56" height="84" rx="12" transform="rotate(90 320 320)"/><rect x="292" y="92" width="56" height="84" rx="12" transform="rotate(135 320 320)"/><rect x="292" y="92" width="56" height="84" rx="12" transform="rotate(180 320 320)"/><rect x="292" y="92" width="56" height="84" rx="12" transform="rotate(225 320 320)"/><rect x="292" y="92" width="56" height="84" rx="12" transform="rotate(270 320 320)"/><rect x="292" y="92" width="56" height="84" rx="12" transform="rotate(315 320 320)"/></svg>
